<?xml version="1.0" standalone="no"?>
<!DOCTYPE svg PUBLIC "-//W3C//DTD SVG 20010904//EN"
 "http://www.w3.org/TR/2001/REC-SVG-20010904/DTD/svg10.dtd">
<svg version="1.0" xmlns="http://www.w3.org/2000/svg"
 width="397.000000pt" height="50.000000pt" viewBox="0 0 397.000000 50.000000"
 preserveAspectRatio="xMidYMid meet">

<g transform="translate(0.000000,50.000000) scale(0.100000,-0.100000)"
fill="#000000" stroke="none">
<path d="M175 486 c-5 -3 -22 -7 -37 -10 -37 -8 -94 -60 -107 -97 l-10 -30 30
25 c40 34 88 42 147 23 26 -8 66 -12 89 -10 79 9 173 -72 173 -148 0 -13 -21
-67 -46 -121 -25 -55 -44 -101 -41 -104 9 -9 81 26 110 54 99 94 24 306 -135
384 -48 24 -148 43 -173 34z"/>
<path d="M600 455 c-19 -23 -3 -55 28 -54 26 0 26 1 5 9 -13 5 -23 16 -23 25
0 9 10 20 23 25 22 9 22 9 1 9 -12 1 -27 -6 -34 -14z"/>
<path d="M688 437 l-16 -32 39 0 c31 0 38 3 33 15 -3 8 -9 23 -11 33 -8 27
-28 20 -45 -16z m31 -16 c-15 -5 -22 6 -14 19 6 9 10 9 16 -1 5 -8 4 -15 -2
-18z"/>
<path d="M770 435 c0 -34 14 -48 23 -22 4 10 7 10 18 0 19 -19 24 -16 26 14 1
31 -11 43 -44 43 -20 0 -23 -5 -23 -35z m50 10 c0 -8 -7 -15 -15 -15 -16 0
-20 12 -8 23 11 12 23 8 23 -8z"/>
<path d="M868 463 c6 -2 12 -18 12 -34 0 -16 5 -29 10 -29 6 0 10 13 10 29 0
16 6 32 13 34 6 3 -4 5 -23 5 -19 0 -29 -2 -22 -5z"/>
<path d="M947 453 c-2 -10 -8 -25 -11 -33 -5 -12 2 -15 32 -15 l39 0 -13 30
c-14 35 -39 44 -47 18z m33 -24 c0 -5 -4 -9 -10 -9 -5 0 -10 7 -10 16 0 8 5
12 10 9 6 -3 10 -10 10 -16z"/>
<path d="M1030 455 c-6 -8 -9 -23 -5 -35 10 -32 69 -25 73 9 6 38 -43 57 -68
26z m48 -23 c2 -14 -2 -22 -12 -22 -19 0 -29 17 -22 36 8 22 30 12 34 -14z"/>
<path d="M2224 435 c-20 -50 -18 -67 8 -63 14 2 31 18 45 43 29 52 29 55 -8
55 -25 0 -32 -6 -45 -35z"/>
<path d="M2697 464 c-4 -4 -7 -38 -7 -76 0 -37 -2 -68 -5 -68 -2 0 -19 9 -37
20 -73 44 -184 16 -214 -55 -35 -84 -5 -218 55 -249 44 -23 132 -21 164 4 32
26 47 25 47 -1 0 -18 5 -20 43 -17 l42 3 -1 220 -1 220 -39 3 c-22 2 -43 0
-47 -4z m-32 -189 c21 -20 25 -34 25 -85 0 -78 -26 -110 -90 -110 -63 0 -90
32 -90 108 0 81 24 112 86 112 34 0 51 -6 69 -25z"/>
<path d="M1400 342 c-66 -33 -78 -103 -24 -138 14 -9 59 -26 101 -38 81 -22
106 -43 84 -70 -21 -26 -65 -28 -127 -7 -63 21 -98 14 -92 -17 6 -32 76 -57
160 -56 83 0 120 16 140 60 14 31 24 31 32 -1 3 -13 20 -31 36 -40 39 -20 139
-20 168 1 21 15 24 15 36 -1 8 -12 23 -16 51 -13 l40 3 1 110 c1 198 -15 220
-156 220 -125 0 -207 -46 -141 -79 25 -13 30 -13 57 5 32 21 94 25 125 9 13
-7 19 -21 19 -44 l0 -34 -89 -4 c-94 -4 -139 -22 -148 -59 -7 -26 -18 -24 -31
6 -14 30 -54 51 -124 66 -69 15 -88 25 -88 50 0 33 43 42 113 22 57 -16 60
-16 73 2 17 23 10 33 -32 51 -47 20 -141 18 -184 -4z m518 -199 c5 -35 -39
-73 -85 -73 -72 0 -108 51 -60 85 15 11 40 15 82 13 53 -3 60 -5 63 -25z"/>
<path d="M2062 343 c-4 -10 -6 -76 -3 -146 6 -126 7 -129 34 -153 37 -32 126
-34 175 -4 40 25 42 25 42 0 0 -17 7 -20 45 -20 l45 0 -2 167 c-3 183 -4 184
-63 169 -22 -6 -23 -10 -27 -122 -3 -113 -4 -116 -31 -140 -36 -31 -71 -31
-102 1 -24 23 -25 30 -25 138 0 96 -3 116 -16 121 -30 11 -63 6 -72 -11z"/>
<path d="M2935 353 c-68 -17 -109 -81 -108 -170 1 -122 53 -166 195 -161 75 3
90 6 112 27 32 30 32 35 1 49 -21 10 -31 8 -58 -8 -66 -41 -162 -10 -155 49
l3 26 122 3 c113 2 122 4 128 23 18 54 -23 131 -81 155 -32 14 -118 17 -159 7z
m135 -73 c46 -46 16 -72 -77 -68 -63 3 -68 5 -71 26 -6 39 24 62 80 62 35 0
54 -6 68 -20z"/>
</g>
</svg>
